<?xml version="1.0" encoding="utf-8"?>
<!-- Generator: Adobe Illustrator 20.1.0, SVG Export Plug-In . SVG Version: 6.00 Build 0)  -->
<svg version="1.1" xmlns="http://www.w3.org/2000/svg" xmlns:xlink="http://www.w3.org/1999/xlink" x="0px" y="0px" width="190px"
	 height="120px" viewBox="0 0 190 120" style="enable-background:new 0 0 190 120;" xml:space="preserve">
<style type="text/css">
	.st0{fill:#FFFFFF;}
	.st1{fill:#999999;}
</style>
<g id="Layer_2">
</g>
<g id="Layer_1">
	<g>
		<g>
			<g>
				<path class="st0" d="M42.2,23.6h6v19.9h-6V23.6z"/>
				<path class="st0" d="M56,55.7h6v19.9h-6V55.7z"/>
				<path class="st0" d="M78.9,23.6H85v19.9l-6.1,0V23.6z"/>
				<path class="st0" d="M96.8,29.3v7c0,1.7,1.5,1.9,4.1,1.7v5.4c-7.8,0.8-10.1-1.6-10.1-7.1v-7l-2.8,0.4v-6.1h3.1v-6.1h6.1v6.1h3.1
					v6.2L96.8,29.3z"/>
				<path class="st0" d="M124.7,23.6v19.9h-6v-1.9c-1.3,1.5-3.3,2.4-5.9,2.4c-5.2,0-9.5-4.6-9.5-10.5s4.3-10.5,9.5-10.5
					c2.7,0,4.6,0.9,5.9,2.4v-1.9H124.7z M118.7,33.5c0-3-2-4.8-4.7-4.8c-2.7,0-4.7,1.9-4.7,4.8s2,4.8,4.7,4.8
					C116.8,38.4,118.7,36.5,118.7,33.5z"/>
				<path class="st0" d="M129.5,14.4h6v29h-6V14.4z"/>
				<path class="st1" d="M13.1,95.7h6v6h-6V95.7z"/>
			</g>
			<g>
				<path class="st0" d="M52.9,61.9h-4.6v13.8h-6.1V61.9h-3.1v-6.1h3.1c0-5.6,2.6-9.2,9.2-9.2H56v6.1h-4.6c-2.2,0-3.1,0.8-3.1,3.1
					h4.6L52.9,61.9z"/>
				<path class="st0" d="M85.7,63.4v12.2h-6V64.3c0-2.5-1.6-3.6-3.5-3.6c-2.2,0-3.7,1.3-3.7,4.1v10.9h-6V55.7h6v1.9
					c1.1-1.5,3.1-2.4,5.7-2.4C82.3,55.2,85.7,58.1,85.7,63.4z"/>
				<path class="st0" d="M111.8,55.9v19.9h-6V74c-1.3,1.5-3.3,2.4-5.9,2.4c-5.2,0-9.5-4.6-9.5-10.5s4.3-10.5,9.5-10.5
					c2.7,0,4.6,0.9,5.9,2.4v-1.9H111.8z M105.8,65.9c0-3-2-4.8-4.7-4.8c-2.7,0-4.7,1.9-4.7,4.8c0,3,2,4.8,4.7,4.8
					C103.8,70.7,105.8,68.9,105.8,65.9z"/>
				<path class="st0" d="M135.6,63.6v12.2h-6V64.5c0-2.5-1.5-3.6-3.5-3.6c-2.2,0-3.7,1.3-3.7,4.1v10.9h-6V55.9h6v1.9
					c1.1-1.5,3.1-2.4,5.7-2.4C132.2,55.4,135.6,58.2,135.6,63.6z"/>
				<path class="st0" d="M139.1,65.9c0-5.9,4.5-10.5,10.5-10.5c3.9,0,7.3,2,9,5.1l-5.2,3c-0.7-1.4-2.1-2.2-3.9-2.2
					c-2.6,0-4.5,1.9-4.5,4.6c0,2.7,1.9,4.6,4.5,4.6c1.7,0,3.2-0.8,3.9-2.2l5.2,3c-1.7,3.1-5.1,5.1-9,5.1
					C143.6,76.4,139.1,71.8,139.1,65.9z"/>
				<path class="st0" d="M171.1,71c1.6,0,3-0.6,3.8-1.5l4.8,2.7c-1.9,2.7-4.9,4.1-8.7,4.1c-6.8,0-11-4.6-11-10.5s4.3-10.5,10.6-10.5
					c5.8,0,10.1,4.5,10.1,10.5c0,0.8-0.1,1.6-0.2,2.4h-14.1C167.1,70.3,168.9,71,171.1,71z M174.8,63.8c-0.6-2.3-2.4-3.1-4.2-3.1
					c-2.3,0-3.8,1.1-4.3,3.1H174.8z"/>
			</g>
			<g>
				<path class="st1" d="M38.7,87.8v13.9h-1.4v-3.1c-1.2,2.1-3.3,3.4-6,3.4c-4,0-7.2-3.1-7.2-7.3c0-4.1,3.3-7.3,7.2-7.3
					c2.7,0,4.8,1.4,6,3.4v-3.1H38.7z M37.3,94.7c0-3.3-2.6-5.9-5.9-5.9c-3.3,0-5.9,2.6-5.9,5.9c0,3.3,2.6,5.9,5.9,5.9
					C34.7,100.7,37.3,98,37.3,94.7z"/>
				<path class="st1" d="M57,87.8V101c0,4.2-3.1,6.5-6.9,6.5c-3.3,0-5.6-1.3-6.6-3.3l1.2-0.7c0.7,1.5,2.3,2.7,5.3,2.7
					c3.5,0,5.5-2,5.5-5.2v-2.6c-1.1,2.1-3.3,3.5-6,3.5c-4,0-7.2-3.1-7.2-7.3c0-4.1,3.2-7.3,7.2-7.3c2.7,0,4.8,1.4,6,3.5v-3.2H57z
					 M55.6,94.7c0-3.3-2.6-5.9-5.9-5.9s-5.9,2.6-5.9,5.9c0,3.3,2.6,5.9,5.9,5.9S55.6,98,55.6,94.7z"/>
				<path class="st1" d="M74.7,94.8c0,0.2,0,0.4,0,0.7H62c0.3,3.1,2.7,5.2,5.9,5.2c2.3,0,4-1.1,4.8-2.5l1.2,0.7
					c-1.1,1.9-3.3,3.1-6.1,3.1c-4.3,0-7.3-3.1-7.3-7.3c0-4.1,2.9-7.3,7.2-7.3C72,87.5,74.7,91,74.7,94.8z M62,94.1h11.2
					c-0.3-3.4-2.7-5.3-5.4-5.3C64.6,88.8,62.3,91,62,94.1z"/>
				<path class="st1" d="M90,93v8.7h-1.4V93c0-2.6-1.5-4.2-4.1-4.2c-2.7,0-4.9,1.8-4.9,5.5v7.3h-1.4V87.8h1.4v2.6
					c1.1-2.1,2.8-2.9,5-2.9C87.9,87.5,90,89.7,90,93z"/>
				<path class="st1" d="M93.2,94.7c0-4.1,3.1-7.3,7.3-7.3c2.7,0,5.1,1.4,6.1,3.6l-1.1,0.7c-0.8-1.8-2.7-2.9-4.9-2.9
					c-3.4,0-5.9,2.6-5.9,5.9c0,3.3,2.5,5.9,5.9,5.9c2.3,0,4.1-1.2,5-2.9l1.2,0.7c-1.1,2.1-3.4,3.5-6.2,3.5
					C96.3,102,93.2,98.9,93.2,94.7z"/>
				<path class="st1" d="M121.7,87.8l-6,15.2c-1.1,2.7-3.1,4.5-5.5,4.3v-1.3c1.9,0.2,3.3-1.2,4.1-3.3l0.3-0.8l-6.4-14.2h1.5
					l5.6,12.4l4.8-12.4H121.7z"/>
			</g>
			<g>
				<path class="st0" d="M37.8,29.6c0,7.9-5.8,13.9-13.5,13.9H13.1V16h11.1C31.9,16,37.8,21.7,37.8,29.6z M31.7,29.6
					c0-4.8-3.4-7.5-7.8-7.5h-4.6v15.3h5C28.6,37.4,31.7,34.3,31.7,29.6z"/>
			</g>
		</g>
		<g>
			<g>
				<path class="st0" d="M68,24v1.6C67,24,64.8,23,62.2,23c-5.6,0-9.8,4.6-9.8,10.1c0,5.5,4.1,10.1,9.8,10.1c2.6,0,4.8-1,5.8-2.6
					v1.8c0,2.4,0,3.8-2,4.1V47h-4v6h4v-0.3c3-0.4,8-4,8-10.2V24H68z M63.2,37.7c-2.8,0-4.8-1.9-4.8-4.6c0-2.7,2-4.6,4.8-4.6
					c2.8,0,4.8,1.9,4.8,4.6C68,35.9,66,37.7,63.2,37.7z"/>
			</g>
		</g>
	</g>
</g>
</svg>
