<?xml version="1.0" encoding="UTF-8"?>
<svg width="111px" height="115px" viewBox="0 0 111 115" version="1.1" xmlns="http://www.w3.org/2000/svg" xmlns:xlink="http://www.w3.org/1999/xlink">
    <!-- Generator: Sketch 45.2 (43514) - http://www.bohemiancoding.com/sketch -->
    <title>Shape</title>
    <desc>Created with Sketch.</desc>
    <defs>
        <filter x="-8.1%" y="-7.2%" width="116.2%" height="115.5%" filterUnits="objectBoundingBox" id="filter-1">
            <feOffset dx="0" dy="2" in="SourceAlpha" result="shadowOffsetOuter1"></feOffset>
            <feGaussianBlur stdDeviation="10" in="shadowOffsetOuter1" result="shadowBlurOuter1"></feGaussianBlur>
            <feColorMatrix values="0 0 0 0 0   0 0 0 0 0   0 0 0 0 0  0 0 0 0.2 0" type="matrix" in="shadowBlurOuter1" result="shadowMatrixOuter1"></feColorMatrix>
            <feMerge>
                <feMergeNode in="shadowMatrixOuter1"></feMergeNode>
                <feMergeNode in="SourceGraphic"></feMergeNode>
            </feMerge>
        </filter>
    </defs>
    <g id="Page-1" stroke="none" stroke-width="1" fill="none" fill-rule="evenodd">
        <g id="anryze" transform="translate(-242.000000, -2008.000000)" fill-rule="nonzero" fill="#ffffff">
            <g id="about-project" transform="translate(0.000000, 1720.000000)">
                <g id="1" filter="url(#filter-1)" transform="translate(107.000000, 261.000000)">
                    <path d="M197.82763,49.3539232 L199.71863,48.2653872 C200.811736,47.6365772 201.188291,46.23912 200.559481,45.1451002 C199.928843,44.0510804 198.529558,43.6763535 197.439194,44.3042495 L189.396275,48.9325839 C188.788486,49.2835476 188.374458,49.8931644 188.273922,50.5877801 C188.173385,51.2823958 188.398222,51.9834094 188.882625,52.4915756 L195.070189,58.9752652 C195.518947,59.4459587 196.120338,59.6817625 196.723557,59.6817625 C197.290217,59.6817625 197.858705,59.4724638 198.301066,59.0502106 C199.21412,58.179199 199.247937,56.7333015 198.376925,55.8202474 L196.390872,53.7382281 C210.827912,56.4280361 221.795529,69.1120852 221.795529,84.3177721 C221.795529,101.473867 207.838323,115.431074 190.682228,115.431074 C173.526133,115.431074 159.568926,101.473867 159.568926,84.3168582 C159.568926,76.3763035 162.55943,68.8159595 167.991142,63.0296276 C168.853928,62.1092617 168.809144,60.6633642 167.888778,59.7996644 C166.968412,58.9350506 165.521601,58.981663 164.658815,59.9020288 C158.430122,66.539265 155,75.2100802 155,84.3168582 C155,103.992763 171.008151,120 190.683142,120 C210.358133,120 226.366284,103.992763 226.366284,84.3168582 C226.36537,67.0885598 214.090778,52.6725413 197.82763,49.3539232 Z M172.42206,58.6352691 C172.851625,58.6352691 173.284845,58.5137113 173.67054,58.2623701 C174.880634,57.4708737 176.156533,56.7579786 177.460766,56.14562 C178.603226,55.6091207 179.093113,54.2482223 178.556613,53.1057622 C178.0192,51.96513 176.66013,51.4715872 175.516755,52.0099144 C174.019676,52.7145838 172.557327,53.5307573 171.169009,54.4383276 C170.113376,55.1283735 169.817251,56.5450241 170.506382,57.6006572 C170.946001,58.2696818 171.676262,58.6352691 172.42206,58.6352691 Z" id="Shape"></path>
                </g>
            </g>
        </g>
    </g>
</svg>