<?xml version="1.0" encoding="UTF-8"?>
<svg width="66px" height="76px" viewBox="0 0 66 76" version="1.1" xmlns="http://www.w3.org/2000/svg" xmlns:xlink="http://www.w3.org/1999/xlink">
    <!-- Generator: sketchtool 45.2 (43514) - http://www.bohemiancoding.com/sketch -->
    <title>DB2D1238-D069-4B24-92CC-2CA7D7D8273B</title>
    <desc>Created with sketchtool.</desc>
    <defs></defs>
    <g id="Page-1" stroke="none" stroke-width="1" fill="none" fill-rule="evenodd">
        <g id="anryze" transform="translate(-694.000000, -2025.000000)" fill-rule="nonzero" fill="#eba119">
            <g id="about-project" transform="translate(0.000000, 1720.000000)">
                <g id="2" transform="translate(529.000000, 261.000000)">
                    <path d="M213.71953,47.5941023 C212.910983,47.1272882 211.877165,47.4042916 211.410351,48.2128358 L208.029478,54.0686852 C207.562665,54.8772294 207.839675,55.9110497 208.648221,56.3778637 C209.456766,56.8446777 210.490585,56.5676659 210.957398,55.7591217 L214.338273,49.9032807 C214.805086,49.0947365 214.528076,48.0609078 213.71953,47.5941023 L213.71953,47.5941023 Z M188.065793,44.220101 C187.691093,44.0037674 187.236478,43.9395223 186.785486,44.060397 C185.883751,44.3020195 185.355321,45.217281 185.596897,46.119095 L187.346816,52.6497582 C187.588287,53.5514117 188.503702,54.0799351 189.405436,53.8383125 C190.307245,53.5967323 190.835675,52.6814624 190.594025,51.7796145 L188.84418,45.2489851 C188.723413,44.7980443 188.440347,44.4363501 188.065793,44.220101 L188.065793,44.220101 Z M229.468365,68.1238868 C229.093811,67.9076377 228.639106,67.843418 228.188131,67.9642251 L221.657519,69.7141311 C220.75567,69.955779 220.227241,70.8710489 220.468931,71.7728291 C220.710551,72.6745587 221.625892,73.2030314 222.527553,72.961375 L229.058237,71.2115113 C229.960015,70.9698211 230.488444,70.0545512 230.246827,69.1528132 C230.125984,68.7018386 229.84314,68.3402627 229.468365,68.1238868 L229.468365,68.1238868 Z M206.957784,59.3057842 C197.273975,53.7148346 183.579636,55.8465764 177.427096,66.5030879 C173.547089,73.2234603 173.697172,79.0046178 174.139347,83.8193696 C174.581543,88.6340707 175.19808,92.3395075 172.930695,96.2667294 L167.859388,105.050491 C166.424892,107.535094 167.383735,110.63172 169.715609,111.978069 L170.447594,112.400678 C169.057467,114.808366 169.896048,117.93804 172.303815,119.328171 C174.711604,120.718301 177.841239,119.879676 179.231365,117.471903 L179.96335,117.894512 C182.295203,119.24086 185.456383,118.522931 186.890878,116.038328 L191.962186,107.254566 C194.229572,103.327344 197.746811,102.008635 202.137605,99.9841683 C206.528401,97.9597016 211.610067,95.1991343 215.490087,88.4787196 C221.642618,77.8222589 216.641593,64.8967422 206.957784,59.3057842 L206.957784,59.3057842 Z M205.267347,62.2337131 C213.436836,66.9503605 217.720584,77.8536756 212.562149,86.7883677 C209.104045,92.7779222 204.990248,94.9564721 200.73596,96.9179701 C196.915797,98.6792358 192.841979,100.253539 189.970985,104.152954 L176.612332,96.4404218 C178.553846,92.0043784 177.880354,87.6891167 177.49558,83.5001307 C177.067079,78.835143 176.896901,74.1831549 180.35502,68.1935243 C185.513444,59.2588746 197.09786,57.5170573 205.267347,62.2337131 Z M167.535948,59.9689508 C166.727401,59.5021368 165.693583,59.7791486 165.226769,60.5876928 C164.759954,61.3962455 165.036966,62.4300573 165.845512,62.8968713 L171.701353,66.2777527 C172.509899,66.7445667 173.54372,66.4675464 174.010534,65.6590022 C174.477348,64.850458 174.200337,63.8166378 173.391792,63.3498238 L167.535948,59.9689508 L167.535948,59.9689508 Z M220.23855,90.3967734 C219.429983,89.9299593 218.396175,90.2069373 217.929352,91.0155576 C217.462551,91.8240089 217.739548,92.8578798 218.548115,93.3246938 L224.403949,96.7055667 C225.212493,97.1723808 226.246324,96.8953182 226.713126,96.086867 C227.179947,95.2782467 226.902929,94.2444603 226.094385,93.7776463 L220.23855,90.3967734 Z M175.013405,99.4210839 L188.18904,107.028132 L186.498604,109.956053 L173.322969,102.349004 L175.013405,99.4210839 L175.013405,99.4210839 Z M171.632533,105.276925 L184.808169,112.883973 L183.962962,114.347891 C183.45506,115.227595 182.411596,115.404161 181.653785,114.966591 L171.406045,109.050148 C170.648236,108.612579 170.279423,107.62063 170.787304,106.740927 L171.632533,105.276925 L171.632533,105.276925 Z M173.375511,114.091114 L176.303449,115.781466 C175.820568,116.617894 174.830618,116.883123 173.99425,116.40025 C173.157906,115.917377 172.892652,114.927373 173.375511,114.091114 L173.375511,114.091114 Z" id="Shape"></path>
                </g>
            </g>
        </g>
    </g>
</svg>