<?xml version="1.0" encoding="UTF-8"?>
<svg width="72px" height="79px" viewBox="0 0 72 79" version="1.1" xmlns="http://www.w3.org/2000/svg" xmlns:xlink="http://www.w3.org/1999/xlink">
    <!-- Generator: sketchtool 45.2 (43514) - http://www.bohemiancoding.com/sketch -->
    <title>F8570F4E-408F-43D0-A556-B6AFCC959770</title>
    <desc>Created with sketchtool.</desc>
    <defs></defs>
    <g id="Page-1" stroke="none" stroke-width="1" fill="none" fill-rule="evenodd">
        <g id="anryze" transform="translate(-64.000000, -1496.000000)" stroke-width="2" stroke="#7e7e7e">
            <g id="invest" transform="translate(0.000000, 899.000000)">
                <g id="coins" transform="translate(34.000000, 547.000000)">
                    <g id="Group-5" transform="translate(31.000000, 51.000000)">
                        <g id="btcn">
                            <path d="M69.999952,25.718706 C70.0029487,24.5150274 69.8660989,23.3333246 69.4875145,22.191578 C68.3847251,18.8612339 66.5307603,16.0992658 63.4241706,14.3042363 C56.2060942,10.1338144 48.9820245,5.97637827 41.7809295,1.78098378 C39.8230788,0.63923714 37.7373684,0.0648676565 35.495829,0.00593235299 C33.0245419,-0.0579974678 30.6771188,0.388512374 28.5035049,1.65012743 C21.2344845,5.8684967 13.9205134,10.0149449 6.68445683,14.2902517 C2.37019283,16.8404522 0.0996852908,20.7601493 0.0457445045,25.7676523 C-0.042158999,34.140461 0.0247675321,42.5132697 0.0187741114,50.8860784 C0.0177752079,52.1756628 0.176600856,53.436279 0.604131533,54.6519445 C1.74288146,57.8883916 3.58186272,60.5724452 6.62552153,62.3255207 C13.7876593,66.450992 20.9517948,70.5744654 28.0889599,74.7398928 C29.9639017,75.834691 31.9397327,76.4819804 34.0943675,76.5988521 C36.7264781,76.7436931 39.2297301,76.3161625 41.5471861,74.9696406 C48.7682591,70.7792406 55.9903311,66.5918374 63.2353778,62.4423925 C65.2561595,61.2836645 66.8164467,59.7073948 68.0021451,57.7345605 C69.1468884,55.8326483 69.9530035,53.7988809 69.9729816,51.552347 C70.009941,47.1411894 69.9839695,42.7300318 69.9839695,38.3188742 L69.9959563,38.3188742 C69.9959563,34.1184851 69.9909618,29.9180961 69.999952,25.718706 Z" id="Path"></path>
                        </g>
                    </g>
                </g>
            </g>
        </g>
    </g>
</svg>