<?xml version="1.0" encoding="UTF-8"?>
<svg width="76px" height="76px" viewBox="0 0 76 76" version="1.1" xmlns="http://www.w3.org/2000/svg" xmlns:xlink="http://www.w3.org/1999/xlink">
    <!-- Generator: Sketch 45.2 (43514) - http://www.bohemiancoding.com/sketch -->
    <title>Group 4</title>
    <desc>Created with Sketch.</desc>
    <defs></defs>
    <g id="Page-1" stroke="none" stroke-width="1" fill="none" fill-rule="evenodd">
        <g id="anryze" transform="translate(-1103.000000, -2025.000000)" fill="#FFFFFF">
            <g id="about-project" transform="translate(0.000000, 1720.000000)">
                <g id="3" transform="translate(952.000000, 261.000000)">
                    <g id="Group-4" transform="translate(150.123574, 44.191302)">
                        <path d="M68.8689419,52.2192472 C68.2162918,52.2192472 67.6871693,52.7483696 67.6871693,53.4010198 C67.6871693,54.0536699 68.2162918,54.5827923 68.8689419,54.5827923 L75.4058577,54.5827923 C76.0585078,54.5827923 76.5876302,54.0536699 76.5876302,53.4010198 C76.5876302,52.7483696 76.0585078,52.2192472 75.4058577,52.2192472 L68.8689419,52.2192472 Z" id="Shape" fill-rule="nonzero"></path>
                        <path d="M68.8689419,44.3747887 C68.2162918,44.3747887 67.6871693,44.9039111 67.6871693,45.5565613 C67.6871693,46.2092114 68.2162918,46.7383338 68.8689419,46.7383338 L75.4058577,46.7383338 C76.0585078,46.7383338 76.5876302,46.2092114 76.5876302,45.5565613 C76.5876302,44.9039111 76.0585078,44.3747887 75.4058577,44.3747887 L68.8689419,44.3747887 Z" id="Shape" fill-rule="nonzero"></path>
                        <path d="M68.8689419,36.530478 C68.2162918,36.530478 67.6871693,37.0596004 67.6871693,37.7122505 C67.6871693,38.3649007 68.2162918,38.8940231 68.8689419,38.8940231 L75.4058577,38.8940231 C76.0585078,38.8940231 76.5876302,38.3649007 76.5876302,37.7122505 C76.5876302,37.0596004 76.0585078,36.530478 75.4058577,36.530478 L68.8689419,36.530478 Z" id="Shape" fill-rule="nonzero"></path>
                        <path d="M68.8689419,28.6861672 C68.2162918,28.6861672 67.6871693,29.2152896 67.6871693,29.8679398 C67.6871693,30.5205899 68.2162918,31.0497123 68.8689419,31.0497123 L75.4058577,31.0497123 C76.0585078,31.0497123 76.5876302,30.5205899 76.5876302,29.8679398 C76.5876302,29.2152896 76.0585078,28.6861672 75.4058577,28.6861672 L68.8689419,28.6861672 Z" id="Shape" fill-rule="nonzero"></path>
                        <path d="M68.8689419,20.8418564 C68.2162918,20.8418564 67.6871693,21.3709789 67.6871693,22.023629 C67.6871693,22.6762791 68.2162918,23.2054015 68.8689419,23.2054015 L75.4058577,23.2054015 C76.0585078,23.2054015 76.5876302,22.6762791 76.5876302,22.023629 C76.5876302,21.3709789 76.0585078,20.8418564 75.4058577,20.8418564 L68.8689419,20.8418564 Z" id="Shape" fill-rule="nonzero"></path>
                        <path d="M53.234091,7.93305941 C53.234091,8.58570955 53.7632134,9.11483196 54.4158636,9.11483196 C55.0685137,9.11483196 55.5976361,8.58570955 55.5976361,7.93305941 L55.5976361,1.39608454 C55.5976361,0.743434395 55.0685137,0.214311984 54.4158636,0.214311984 C53.7632134,0.214311984 53.234091,0.743434395 53.234091,1.39608454 L53.234091,7.93305941 Z" id="Shape" fill-rule="nonzero"></path>
                        <path d="M45.3897803,7.93305941 C45.3897803,8.58570955 45.9189027,9.11483196 46.5715528,9.11483196 C47.224203,9.11483196 47.7533254,8.58570955 47.7533254,7.93305941 L47.7533254,1.39608454 C47.7533254,0.743434395 47.224203,0.214311984 46.5715528,0.214311984 C45.9189027,0.214311984 45.3897803,0.743434395 45.3897803,1.39608454 L45.3897803,7.93305941 Z" id="Shape" fill-rule="nonzero"></path>
                        <path d="M37.5453218,7.93305941 C37.5453218,8.58570955 38.0744442,9.11483196 38.7270943,9.11483196 C39.3797445,9.11483196 39.9088669,8.58570955 39.9088669,7.93305941 L39.9088669,1.39608454 C39.9088669,0.743434395 39.3797445,0.214311984 38.7270943,0.214311984 C38.0744442,0.214311984 37.5453218,0.743434395 37.5453218,1.39608454 L37.5453218,7.93305941 Z" id="Shape" fill-rule="nonzero"></path>
                        <path d="M29.701011,7.93305941 C29.701011,8.58570955 30.2301334,9.11483196 30.8827836,9.11483196 C31.5354337,9.11483196 32.0645561,8.58570955 32.0645561,7.93305941 L32.0645561,1.39608454 C32.0645561,0.743434395 31.5354337,0.214311984 30.8827836,0.214311984 C30.2301334,0.214311984 29.701011,0.743434395 29.701011,1.39608454 L29.701011,7.93305941 Z" id="Shape" fill-rule="nonzero"></path>
                        <path d="M21.8567003,7.93305941 C21.8567003,8.58570955 22.3858227,9.11483196 23.0384728,9.11483196 C23.691123,9.11483196 24.2202454,8.58570955 24.2202454,7.93305941 L24.2202454,1.39608454 C24.2202454,0.743434395 23.691123,0.214311984 23.0384728,0.214311984 C22.3858227,0.214311984 21.8567003,0.743434395 21.8567003,1.39608454 L21.8567003,7.93305941 Z" id="Shape" fill-rule="nonzero"></path>
                        <path d="M2.13603329,52.2192472 C1.48338315,52.2192472 0.954260738,52.7483696 0.954260738,53.4010198 C0.954260738,54.0536699 1.48338315,54.5827923 2.13603329,54.5827923 L8.67300816,54.5827923 C9.32565831,54.5827923 9.85478072,54.0536699 9.85478072,53.4010198 C9.85478072,52.7483696 9.32565831,52.2192472 8.67300816,52.2192472 L2.13603329,52.2192472 Z" id="Shape" fill-rule="nonzero"></path>
                        <path d="M2.13603329,44.3747887 C1.48338315,44.3747887 0.954260738,44.9039111 0.954260738,45.5565613 C0.954260738,46.2092114 1.48338315,46.7383338 2.13603329,46.7383338 L8.67300816,46.7383338 C9.32565831,46.7383338 9.85478072,46.2092114 9.85478072,45.5565613 C9.85478072,44.9039111 9.32565831,44.3747887 8.67300816,44.3747887 L2.13603329,44.3747887 Z" id="Shape" fill-rule="nonzero"></path>
                        <path d="M2.13603329,36.530478 C1.48338315,36.530478 0.954260738,37.0596004 0.954260738,37.7122505 C0.954260738,38.3649007 1.48338315,38.8940231 2.13603329,38.8940231 L8.67300816,38.8940231 C9.32565831,38.8940231 9.85478072,38.3649007 9.85478072,37.7122505 C9.85478072,37.0596004 9.32565831,36.530478 8.67300816,36.530478 L2.13603329,36.530478 Z" id="Shape" fill-rule="nonzero"></path>
                        <path d="M2.13603329,28.6861672 C1.48338315,28.6861672 0.954260738,29.2152896 0.954260738,29.8679398 C0.954260738,30.5205899 1.48338315,31.0497123 2.13603329,31.0497123 L8.67300816,31.0497123 C9.32565831,31.0497123 9.85478072,30.5205899 9.85478072,29.8679398 C9.85478072,29.2152896 9.32565831,28.6861672 8.67300816,28.6861672 L2.13603329,28.6861672 Z" id="Shape" fill-rule="nonzero"></path>
                        <path d="M2.13603329,20.8418564 C1.48338315,20.8418564 0.954260738,21.3709789 0.954260738,22.023629 C0.954260738,22.6762791 1.48338315,23.2054015 2.13603329,23.2054015 L8.67300816,23.2054015 C9.32565831,23.2054015 9.85478072,22.6762791 9.85478072,22.023629 C9.85478072,21.3709789 9.32565831,20.8418564 8.67300816,20.8418564 L2.13603329,20.8418564 Z" id="Shape" fill-rule="nonzero"></path>
                        <path d="M24.2202454,67.4734196 C24.2202454,66.8207694 23.691123,66.291647 23.0384728,66.291647 C22.3858227,66.291647 21.8567003,66.8207694 21.8567003,67.4734196 L21.8567003,74.0103945 C21.8567003,74.6630446 22.3858227,75.192167 23.0384728,75.192167 C23.691123,75.192167 24.2202454,74.6630446 24.2202454,74.0103945 L24.2202454,67.4734196 Z" id="Shape" fill-rule="nonzero"></path>
                        <path d="M32.0645561,67.4734196 C32.0645561,66.8207694 31.5354337,66.291647 30.8827836,66.291647 C30.2301334,66.291647 29.701011,66.8207694 29.701011,67.4734196 L29.701011,74.0103945 C29.701011,74.6630446 30.2301334,75.192167 30.8827836,75.192167 C31.5354337,75.192167 32.0645561,74.6630446 32.0645561,74.0103945 L32.0645561,67.4734196 Z" id="Shape" fill-rule="nonzero"></path>
                        <path d="M39.9088669,67.4734196 C39.9088669,66.8207694 39.3797445,66.291647 38.7270943,66.291647 C38.0744442,66.291647 37.5453218,66.8207694 37.5453218,67.4734196 L37.5453218,74.0103945 C37.5453218,74.6630446 38.0744442,75.192167 38.7270943,75.192167 C39.3797445,75.192167 39.9088669,74.6630446 39.9088669,74.0103945 L39.9088669,67.4734196 Z" id="Shape" fill-rule="nonzero"></path>
                        <path d="M47.7533254,67.4734196 C47.7533254,66.8207694 47.224203,66.291647 46.5715528,66.291647 C45.9189027,66.291647 45.3897803,66.8207694 45.3897803,67.4734196 L45.3897803,74.0103945 C45.3897803,74.6630446 45.9189027,75.192167 46.5715528,75.192167 C47.224203,75.192167 47.7533254,74.6630446 47.7533254,74.0103945 L47.7533254,67.4734196 Z" id="Shape" fill-rule="nonzero"></path>
                        <path d="M55.5976361,67.4734196 C55.5976361,66.8207694 55.0685137,66.291647 54.4158636,66.291647 C53.7632134,66.291647 53.234091,66.8207694 53.234091,67.4734196 L53.234091,74.0103945 C53.234091,74.6630446 53.7632134,75.192167 54.4158636,75.192167 C55.0685137,75.192167 55.5976361,74.6630446 55.5976361,74.0103945 L55.5976361,67.4734196 Z" id="Shape" fill-rule="nonzero"></path>
                        <path d="M58.338019,9.11468424 L19.1163174,9.11468424 C16.5663182,9.11468424 14.2471486,10.1587965 12.5651022,11.8407824 C10.8831149,13.5228288 9.83900405,15.8419984 9.83900405,18.3920567 L9.83900405,57.0327693 C9.83900405,59.5827686 10.8831164,61.9019381 12.5651613,63.5839845 C14.2471486,65.266031 16.5663182,66.3101418 19.1163174,66.3101418 L58.338019,66.3101418 C60.8880182,66.3101418 63.2071878,65.2660295 64.8891751,63.5839845 C66.5712215,61.9019381 67.6153323,59.5827686 67.6153323,57.0327693 L67.6153323,18.3920567 C67.6153323,15.8419984 66.57122,13.5228288 64.8892342,11.8407824 C63.2071878,10.1587951 60.8880182,9.11468424 58.338019,9.11468424 L58.338019,9.11468424 Z M19.1163174,6.75113914 L58.338019,6.75113914 C61.5404896,6.75113914 64.4510772,8.06045301 66.5603492,10.1696674 C68.6695621,12.2789393 69.9788774,15.189527 69.9788774,18.3920567 L69.9788774,57.0327693 C69.9788774,60.23524 68.6695636,63.1458276 66.5602901,65.2550996 C64.4510772,67.3643715 61.5404896,68.6736869 58.338019,68.6736869 L19.1163174,68.6736869 C15.9138468,68.6736869 13.0032592,67.364373 10.8940463,65.2550996 C8.7847743,63.1458276 7.47545895,60.23524 7.47545895,57.0327693 L7.47545895,18.3920567 C7.47545895,15.189527 8.78477283,12.2789393 10.8939872,10.1696674 C13.0032592,8.06045449 15.9138468,6.75113914 19.1163174,6.75113914 Z" id="Shape" fill-rule="nonzero"></path>
                        <g id="Group" transform="translate(15.933616, 14.865888)">
                            <path d="M42.331724,0.693445336 C40.9678004,0.693445336 39.8622182,1.79903049 39.8622182,3.16295112 C39.8622182,4.5268171 40.9678034,5.63245691 42.331724,5.63245691 C43.69559,5.63245691 44.8012298,4.52681267 44.8012298,3.16295112 C44.8012298,1.79902753 43.6955855,0.693445336 42.331724,0.693445336 Z" id="Shape"></path>
                            <path d="M3.25523279,40.0605049 C1.89136681,40.0605049 0.785727,41.16609 0.785727,42.5299516 C0.785727,43.8938752 1.89137124,44.9994574 3.25523279,44.9994574 C4.61909876,44.9994574 5.72473857,43.8938722 5.72473857,42.5299516 C5.72473857,41.1660856 4.61909433,40.0605049 3.25523279,40.0605049 Z" id="Shape"></path>
                        </g>
                    </g>
                </g>
            </g>
        </g>
    </g>
</svg>